<?xml version="1.0" encoding="UTF-8"?>
<!DOCTYPE svg PUBLIC "-//W3C//DTD SVG 1.1//EN" "http://www.w3.org/Graphics/SVG/1.1/DTD/svg11.dtd">
<svg xmlns="http://www.w3.org/2000/svg" version="1.1" width="100%" height="100%" viewBox="0 0 566 200" style="shape-rendering:geometricPrecision; text-rendering:geometricPrecision; image-rendering:optimizeQuality; fill-rule:evenodd; clip-rule:evenodd" xmlns:xlink="http://www.w3.org/1999/xlink">
<!-- <g><path style="opacity:1" fill="#05a081" d="M 6.5,-0.5 C 68.5,-0.5 130.5,-0.5 192.5,-0.5C 195.139,1.30904 197.306,3.64238 199,6.5C 199.667,68.5 199.667,130.5 199,192.5C 197.306,195.358 195.139,197.691 192.5,199.5C 130.5,199.5 68.5,199.5 6.5,199.5C 3.83333,197.5 1.5,195.167 -0.5,192.5C -0.5,130.5 -0.5,68.5 -0.5,6.5C 1.5,3.83333 3.83333,1.5 6.5,-0.5 Z"/></g> -->
<g><path className='logo' style="opacity:1" fill="current" d="M 6.5,-0.5 C 68.5,-0.5 130.5,-0.5 192.5,-0.5C 195.139,1.30904 197.306,3.64238 199,6.5C 199.667,68.5 199.667,130.5 199,192.5C 197.306,195.358 195.139,197.691 192.5,199.5C 130.5,199.5 68.5,199.5 6.5,199.5C 3.83333,197.5 1.5,195.167 -0.5,192.5C -0.5,130.5 -0.5,68.5 -0.5,6.5C 1.5,3.83333 3.83333,1.5 6.5,-0.5 Z"/></g>
<g><path style="opacity:1" fill="#fafdfc" d="M 68.5,55.5 C 86.2085,55.0859 103.875,55.5859 121.5,57C 140.781,65.1799 147.614,79.3466 142,99.5C 137.178,110.156 129.011,116.49 117.5,118.5C 117.5,126.833 117.5,135.167 117.5,143.5C 101.167,143.5 84.8333,143.5 68.5,143.5C 68.5,114.167 68.5,84.8333 68.5,55.5 Z"/></g>
<g><path style="opacity:1" fill="#fefefe" d="M 495.5,58.5 C 500.5,58.5 505.5,58.5 510.5,58.5C 510.5,84.5 510.5,110.5 510.5,136.5C 505.5,136.5 500.5,136.5 495.5,136.5C 495.5,110.5 495.5,84.5 495.5,58.5 Z"/></g>
<g><path style="opacity:0.78" fill="#aeaeae" d="M 495.5,58.5 C 500.64,57.5119 505.974,57.1786 511.5,57.5C 511.5,84.1667 511.5,110.833 511.5,137.5C 505.974,137.821 500.64,137.488 495.5,136.5C 500.5,136.5 505.5,136.5 510.5,136.5C 510.5,110.5 510.5,84.5 510.5,58.5C 505.5,58.5 500.5,58.5 495.5,58.5 Z"/></g>
<g><path style="opacity:0.871" fill="#bfbfbf" d="M 291.5,63.5 C 280.833,63.5 270.167,63.5 259.5,63.5C 259.5,87.8333 259.5,112.167 259.5,136.5C 264.5,136.5 269.5,136.5 274.5,136.5C 274.5,136.833 274.5,137.167 274.5,137.5C 269.167,137.5 263.833,137.5 258.5,137.5C 258.5,112.5 258.5,87.5 258.5,62.5C 269.679,62.1721 280.679,62.5054 291.5,63.5 Z"/></g>
<g><path style="opacity:1" fill="#fbfbfb" d="M 291.5,63.5 C 301.535,64.3688 307.702,69.7022 310,79.5C 312.329,100.006 303.162,110.339 282.5,110.5C 279.833,110.5 277.167,110.5 274.5,110.5C 274.5,119.167 274.5,127.833 274.5,136.5C 269.5,136.5 264.5,136.5 259.5,136.5C 259.5,112.167 259.5,87.8333 259.5,63.5C 270.167,63.5 280.833,63.5 291.5,63.5 Z M 287.5,76.5 C 293.149,79.4163 294.982,84.083 293,90.5C 292.003,92.3231 290.836,93.9897 289.5,95.5C 286.933,95.7215 284.599,96.3882 282.5,97.5C 280.167,97.5 277.833,97.5 275.5,97.5C 275.5,90.5 275.5,83.5 275.5,76.5C 279.5,76.5 283.5,76.5 287.5,76.5 Z"/></g>
<g><path className='logo' style="opacity:1" fill="current" d="M 80.5,68.5 C 92.8378,68.3335 105.171,68.5001 117.5,69C 131.521,75.3918 135.021,85.5585 128,99.5C 121.694,106.436 113.86,109.103 104.5,107.5C 104.5,115.167 104.5,122.833 104.5,130.5C 96.5,130.5 88.5,130.5 80.5,130.5C 80.5,109.833 80.5,89.1667 80.5,68.5 Z"/></g>
<g><path style="opacity:0.235" fill="#8a8a8a" d="M 287.5,76.5 C 283.5,76.5 279.5,76.5 275.5,76.5C 275.5,83.5 275.5,90.5 275.5,97.5C 274.508,90.3524 274.175,83.0191 274.5,75.5C 279.032,75.1818 283.366,75.5151 287.5,76.5 Z"/></g>
<g><path style="opacity:1" fill="#f5f5f5" d="M 365.5,122.5 C 366.483,126.298 366.817,130.298 366.5,134.5C 353.364,140.238 340.364,139.738 327.5,133C 318.699,124.317 315.533,113.817 318,101.5C 321.783,84.0126 332.617,76.5126 350.5,79C 361.225,80.7254 367.725,86.892 370,97.5C 370.499,102.489 370.666,107.489 370.5,112.5C 358.5,112.5 346.5,112.5 334.5,112.5C 334.277,118.561 336.944,122.728 342.5,125C 350.396,126.056 358.063,125.223 365.5,122.5 Z M 355.5,101.5 C 348.087,102.128 341.087,101.461 334.5,99.5C 338.513,89.9968 344.68,88.3302 353,94.5C 354.136,96.743 354.97,99.0763 355.5,101.5 Z"/></g>
<g><path style="opacity:0.592" fill="#a0a0a0" d="M 390.5,80.5 C 384.824,80.3339 379.157,80.5006 373.5,81C 374.252,81.6708 374.586,82.5041 374.5,83.5C 372.896,82.713 372.229,81.3797 372.5,79.5C 378.69,79.1771 384.69,79.5104 390.5,80.5 Z"/></g>
<g><path style="opacity:0.596" fill="#9a9a9a" d="M 411.5,80.5 C 417.678,79.1826 424.012,79.1826 430.5,80.5C 430.376,81.1067 430.043,81.44 429.5,81.5C 423.69,80.5104 417.69,80.1771 411.5,80.5 Z"/></g>
<g><path style="opacity:1" fill="#f4f4f4" d="M 453.5,78.5 C 476.765,77.7689 487.432,89.1023 485.5,112.5C 473.167,112.5 460.833,112.5 448.5,112.5C 450.99,124.59 458.323,128.757 470.5,125C 474.011,124.33 477.344,123.163 480.5,121.5C 481.661,125.795 481.828,130.129 481,134.5C 471.157,138.71 460.991,139.543 450.5,137C 437.65,132.502 431.317,123.335 431.5,109.5C 430.811,93.1379 438.145,82.8045 453.5,78.5 Z M 469.5,98.5 C 469.5,99.5 469.5,100.5 469.5,101.5C 462.5,101.5 455.5,101.5 448.5,101.5C 450.319,92.4237 455.652,89.257 464.5,92C 466.826,93.8049 468.492,95.9716 469.5,98.5 Z"/></g>
<g><path style="opacity:1" fill="#f2f2f2" d="M 565.5,83.5 C 565.5,83.8333 565.5,84.1667 565.5,84.5C 563.713,88.0748 561.879,91.7415 560,95.5C 553.588,91.9464 546.755,90.7797 539.5,92C 538.167,93.6667 538.167,95.3333 539.5,97C 545.833,100 552.167,103 558.5,106C 561.481,108.464 563.814,111.297 565.5,114.5C 565.5,118.167 565.5,121.833 565.5,125.5C 560.509,135.647 552.175,139.98 540.5,138.5C 534.589,138.65 528.923,137.65 523.5,135.5C 522.893,133.254 522.56,130.921 522.5,128.5C 522.539,126.048 523.206,124.048 524.5,122.5C 530.188,124.38 536.021,125.713 542,126.5C 550.213,125.524 551.379,122.357 545.5,117C 537.464,114.235 530.297,110.069 524,104.5C 519.67,95.7957 521.17,88.2957 528.5,82C 541.063,77.0564 553.396,77.5564 565.5,83.5 Z"/></g>
<g><path style="opacity:1" fill="#f4f4f4" d="M 390.5,80.5 C 394.225,85.5971 397.725,90.9304 401,96.5C 404.759,91.3093 408.259,85.9759 411.5,80.5C 417.69,80.1771 423.69,80.5104 429.5,81.5C 423.713,90.2368 418.046,99.0701 412.5,108C 417.974,116.456 423.307,124.956 428.5,133.5C 428.414,134.496 428.748,135.329 429.5,136C 423.843,136.499 418.176,136.666 412.5,136.5C 408.441,130.734 404.608,124.734 401,118.5C 397.698,124.942 393.865,130.942 389.5,136.5C 383.642,136.822 377.975,136.489 372.5,135.5C 377.858,125.963 383.858,116.797 390.5,108C 384.773,100.033 379.439,91.866 374.5,83.5C 374.586,82.5041 374.252,81.6708 373.5,81C 379.157,80.5006 384.824,80.3339 390.5,80.5 Z"/></g>
<g><path style="opacity:0.984" fill="#c2c2c2" d="M 289.5,95.5 C 287.562,97.1628 285.228,97.8294 282.5,97.5C 284.599,96.3882 286.933,95.7215 289.5,95.5 Z"/></g>
<g><path style="opacity:0.627" fill="#a2a2a2" d="M 334.5,99.5 C 341.087,101.461 348.087,102.128 355.5,101.5C 348.352,102.492 341.019,102.825 333.5,102.5C 333.263,101.209 333.596,100.209 334.5,99.5 Z"/></g>
<g><path style="opacity:0.627" fill="#a3a3a3" d="M 469.5,98.5 C 470.434,99.5676 470.768,100.901 470.5,102.5C 462.981,102.825 455.648,102.492 448.5,101.5C 455.5,101.5 462.5,101.5 469.5,101.5C 469.5,100.5 469.5,99.5 469.5,98.5 Z"/></g>
<g><path style="opacity:0.234" fill="#898989" d="M 282.5,110.5 C 280.393,111.468 278.059,111.802 275.5,111.5C 275.826,120.349 275.493,129.016 274.5,137.5C 274.5,137.167 274.5,136.833 274.5,136.5C 274.5,127.833 274.5,119.167 274.5,110.5C 277.167,110.5 279.833,110.5 282.5,110.5 Z"/></g>
<g><path style="opacity:0.843" fill="#b0b0b0" d="M 365.5,122.5 C 365.56,121.957 365.893,121.624 366.5,121.5C 367.811,125.984 367.811,130.317 366.5,134.5C 366.817,130.298 366.483,126.298 365.5,122.5 Z"/></g>
<g><path style="opacity:0.384" fill="#909090" d="M 524.5,122.5 C 523.206,124.048 522.539,126.048 522.5,128.5C 522.56,130.921 522.893,133.254 523.5,135.5C 521.564,131.285 520.897,126.619 521.5,121.5C 522.791,121.263 523.791,121.596 524.5,122.5 Z"/></g>
<g><path style="opacity:0.749" fill="#a9a9a9" d="M 372.5,135.5 C 377.975,136.489 383.642,136.822 389.5,136.5C 383.654,137.817 377.654,137.817 371.5,136.5C 371.624,135.893 371.957,135.56 372.5,135.5 Z"/></g>
<g><path style="opacity:0.749" fill="#a9a9a9" d="M 428.5,133.5 C 429.837,134.315 430.837,135.482 431.5,137C 424.986,137.82 418.653,137.653 412.5,136.5C 418.176,136.666 423.843,136.499 429.5,136C 428.748,135.329 428.414,134.496 428.5,133.5 Z"/></g>
</svg>
