<?xml version="1.0" encoding="UTF-8"?>
<!DOCTYPE svg PUBLIC "-//W3C//DTD SVG 1.1//EN" "http://www.w3.org/Graphics/SVG/1.1/DTD/svg11.dtd">
<svg xmlns="http://www.w3.org/2000/svg" version="1.1" width="100%" height="100%" viewBox='0 0 512 512' style="shape-rendering:geometricPrecision; text-rendering:geometricPrecision; image-rendering:optimizeQuality; fill-rule:evenodd; clip-rule:evenodd" xmlns:xlink="http://www.w3.org/1999/xlink">
<g><path style="opacity:0.972" fill="current" d="M 215.5,40.5 C 282.75,36.5583 338.25,59.8917 382,110.5C 426.733,169.288 436.733,233.621 412,303.5C 404.924,321.207 395.424,337.374 383.5,352C 410.333,378.833 437.167,405.667 464,432.5C 471.845,444.283 470.678,455.117 460.5,465C 450.38,470.158 440.713,469.491 431.5,463C 405,436.5 378.5,410 352,383.5C 301.63,422.042 245.463,433.876 183.5,419C 115.209,398.445 70.0426,354.279 48,286.5C 29.0588,209.07 48.2254,142.903 105.5,88C 137.282,60.9445 173.949,45.1112 215.5,40.5 Z M 226.5,83.5 C 285.73,83.6554 330.897,108.655 362,158.5C 387.249,206.482 387.916,254.815 364,303.5C 331.338,357.754 283.172,383.587 219.5,381C 154.329,372.155 111.162,336.655 90,274.5C 74.5287,210.585 91.6953,157.419 141.5,115C 166.753,96.0834 195.087,85.5834 226.5,83.5 Z"/></g>
</svg>
