<?xml version="1.0" encoding="UTF-8"?>
<!DOCTYPE svg PUBLIC "-//W3C//DTD SVG 1.1//EN" "http://www.w3.org/Graphics/SVG/1.1/DTD/svg11.dtd">
<svg xmlns="http://www.w3.org/2000/svg" fill="#fff" version="1.1"  width="100%" height="100%" viewBox="0 0 512 512"  style="shape-rendering:geometricPrecision; text-rendering:geometricPrecision; image-rendering:optimizeQuality; fill-rule:evenodd; clip-rule:evenodd" xmlns:xlink="http://www.w3.org/1999/xlink">
<g><path style="opacity:0.964" fill="current" d="M 251.5,38.5 C 258.289,37.8183 264.122,39.8183 269,44.5C 289.639,87.1122 310.806,129.445 332.5,171.5C 378.466,178.438 424.466,185.272 470.5,192C 480.054,194.923 484.221,201.423 483,211.5C 482.275,213.949 481.275,216.283 480,218.5C 446.986,251.015 413.819,283.348 380.5,315.5C 379.353,317.765 379.186,320.098 380,322.5C 387.771,366.96 395.271,411.46 402.5,456C 402.133,466.7 396.633,472.533 386,473.5C 383.198,472.67 380.365,471.837 377.5,471C 336.992,449.245 296.325,427.745 255.5,406.5C 214.958,428.201 174.292,449.701 133.5,471C 115.745,475.546 107.578,468.712 109,450.5C 116.991,405.887 124.325,361.22 131,316.5C 97.6667,283.833 64.3333,251.167 31,218.5C 25.832,210.012 26.6654,202.179 33.5,195C 35.4899,193.249 37.8232,192.249 40.5,192C 86.5388,185.304 132.539,178.471 178.5,171.5C 200.194,129.445 221.361,87.1122 242,44.5C 244.843,41.8373 248.009,39.8373 251.5,38.5 Z M 363.5,425.5 C 329.22,407.692 294.887,389.859 260.5,372C 257.167,371.333 253.833,371.333 250.5,372C 216.113,389.859 181.78,407.692 147.5,425.5C 153.232,388.44 159.399,351.44 166,314.5C 166.877,309.456 165.877,304.789 163,300.5C 135.5,273.667 108,246.833 80.5,220C 118.094,213.963 155.761,208.296 193.5,203C 197.722,201.974 201.222,199.807 204,196.5C 220.806,161.555 238.139,126.888 256,92.5C 273,127.167 290,161.833 307,196.5C 309.778,199.807 313.278,201.974 317.5,203C 355.238,208.296 392.905,213.962 430.5,220C 403,246.833 375.5,273.667 348,300.5C 345.123,304.789 344.123,309.456 345,314.5C 351.492,351.46 357.659,388.46 363.5,425.5 Z"/></g>
</svg>
